<svg xmlns="http://www.w3.org/2000/svg" version="1.1" viewBox="0 0 471.31 111.06" height="32mm" width="133mm">
  <g transform="translate(-11.118166,-287.17383)">
    <path d="m11.12 339.05c0-13.81 11.21-25 25.02-25 1.25 1.25 15.22 15.22 17 17l-17.05 0-0.02 0c-4.42 0-8 3.58-8 8 0 4.42 3.58 8 8 8l0.02 0 0 0 0.04 0 12.69 0 10.97 0c0 0 0 0 0 0l9.37 0 17 17-26.37 0-10.96 0-12.69 0-0.04 0-0.02 0c-4.42 0-8 3.58-8 8 0 4.42 3.58 8 8 8l0.02 0 0 0 0.05 0 23.64 0c0 0 0 0 0 0l42.36 0 17 17-83 0c0 0-0.01 0-0.02 0-13.81 0-25-11.19-25-25 0.01-6.08 2.23-11.95 6.25-16.51-4.02-4.56-6.24-10.42-6.25-16.49z" fill="#274c72"/>
    <path d="m63 287.17c-13.81 0-25 11.21-25 25.02 1.25 1.25 15.22 15.22 17 17l0-17.05 0-0.02c0-4.42 3.58-8 8-8 4.42 0 8 3.58 8 8l0 0.02 0 0 0 0.04 0 12.69 0 10.97c0 0 0 0 0 0l0 9.37 17 17 0-26.37 0-10.96 0-12.69 0-0.04 0-0.02c0-4.42 3.58-8 8-8 4.42 0 8 3.58 8 8l0 0.02 0 0 0 0.05 0 23.64c0 0 0 0 0 0l0 42.36 17 17 0-83c0 0 0-0.01 0-0.02 0-13.81-11.19-25-25-25-6.08 0.01-11.95 2.23-16.51 6.25C74.94 289.41 69.07 287.19 63 287.17Z" fill="#404041"/>
    <path d="m163.96 339.31-34.08 0 0-49.72 34.08 0 0 9.95-24.13 0 0 9.95 16.33 0 0 9.95-16.33 0 0 9.92 24.13 0 0 9.95zM192.85 339.31l-9.92 0 0-39.77-14.94 0 0-9.95 39.77 0 0 9.95-14.91 0 0 39.77zM240.84 319.45l0-9.95q0-2.05-0.8-3.85-0.76-1.84-2.11-3.19-1.35-1.35-3.19-2.11-1.8-0.8-3.85-0.8-2.05 0-3.88 0.8-1.8 0.76-3.16 2.11-1.35 1.35-2.15 3.19-0.76 1.8-0.76 3.85l0 9.95 19.9 0zm9.95 19.87-9.95 0 0-9.95-19.9 0 0 9.95-9.92 0 0-29.82q0-4.13 1.56-7.73 1.56-3.64 4.23-6.34 2.7-2.7 6.31-4.26 3.64-1.56 7.77-1.56 4.13 0 7.73 1.56 3.64 1.56 6.34 4.26 2.7 2.7 4.26 6.34 1.56 3.61 1.56 7.73l0 29.82zM298.62 314.45q0 3.43-0.9 6.62-0.87 3.16-2.5 5.93-1.63 2.74-3.88 5.03-2.25 2.25-5.03 3.88-2.77 1.63-5.96 2.53-3.16 0.87-6.59 0.87l-14.98 0 0-49.72 14.98 0q3.43 0 6.59 0.9 3.19 0.87 5.96 2.5 2.77 1.63 5.03 3.92 2.25 2.25 3.88 5.03 1.63 2.74 2.5 5.93 0.9 3.16 0.9 6.59zm-9.95 0q0-3.09-1.18-5.79-1.14-2.7-3.19-4.72-2.01-2.05-4.75-3.22-2.7-1.18-5.79-1.18l-4.96 0 0 29.82 4.96 0q3.09 0 5.79-1.14 2.74-1.18 4.75-3.19 2.05-2.05 3.19-4.75 1.18-2.74 1.18-5.82zM333.66 319.45l0-9.95q0-2.05-0.8-3.85-0.76-1.84-2.11-3.19-1.35-1.35-3.19-2.11-1.8-0.8-3.85-0.8-2.05 0-3.88 0.8-1.8 0.76-3.16 2.11-1.35 1.35-2.15 3.19-0.76 1.8-0.76 3.85l0 9.95 19.9 0zm9.95 19.87-9.95 0 0-9.95-19.9 0 0 9.95-9.92 0 0-29.82q0-4.13 1.56-7.73 1.56-3.64 4.23-6.34 2.7-2.7 6.31-4.26 3.64-1.56 7.77-1.56 4.13 0 7.73 1.56 3.64 1.56 6.34 4.26 2.7 2.7 4.26 6.34 1.56 3.61 1.56 7.73l0 29.82zM372.37 339.31l-9.92 0 0-39.77-14.94 0 0-9.95 39.77 0 0 9.95-14.91 0 0 39.77zM420.99 319.45l0-9.95q0-2.05-0.8-3.85-0.76-1.84-2.11-3.19-1.35-1.35-3.19-2.11-1.8-0.8-3.85-0.8-2.05 0-3.88 0.8-1.8 0.76-3.16 2.11-1.35 1.35-2.15 3.19-0.76 1.8-0.76 3.85l0 9.95 19.9 0zm9.95 19.87-9.95 0 0-9.95-19.9 0 0 9.95-9.92 0 0-29.82q0-4.13 1.56-7.73 1.56-3.64 4.23-6.34 2.7-2.7 6.31-4.26 3.64-1.56 7.77-1.56 4.13 0 7.73 1.56 3.64 1.56 6.34 4.26 2.7 2.7 4.26 6.34 1.56 3.61 1.56 7.73l0 29.82z" fill="#404041"/>
    <path d="m171.5 397.2-11.67 0-9.25-15.52-9.29 15.52-11.6 0 14.75-24.04-14.75-24.04 11.6 0 9.29 15.52 9.25-15.52 11.67 0-14.75 24.04 14.75 24.04zM197.93 397.2l-9.59 0 0-38.45-14.45 0 0-9.62 38.45 0 0 9.62-14.42 0 0 38.45zM227.06 358.75l0 19.24 9.62 0q1.98 0 3.72-0.74 1.74-0.77 3.05-2.08 1.31-1.31 2.04-3.05 0.77-1.78 0.77-3.75 0-1.98-0.77-3.72-0.74-1.78-2.04-3.08-1.31-1.31-3.05-2.04-1.74-0.77-3.72-0.77l-9.62 0zm0 38.45-9.62 0 0-48.07 19.24 0q2.65 0 5.1 0.7 2.45 0.67 4.56 1.94 2.15 1.24 3.89 3.02 1.78 1.74 3.02 3.89 1.27 2.15 1.94 4.59 0.7 2.45 0.7 5.1 0 2.48-0.64 4.83-0.6 2.35-1.78 4.46-1.14 2.11-2.82 3.89-1.68 1.78-3.75 3.08l5.33 12.57-10.22 0-4.19-9.69-10.76 0.07 0 9.62zM290.17 377.99l0-9.62q0-1.98-0.77-3.72-0.74-1.78-2.04-3.08-1.31-1.31-3.08-2.04-1.74-0.77-3.72-0.77-1.98 0-3.75 0.77-1.74 0.74-3.05 2.04-1.31 1.31-2.08 3.08-0.74 1.74-0.74 3.72l0 9.62 19.24 0zm9.62 19.21-9.62 0 0-9.62-19.24 0 0 9.62-9.59 0 0-28.83q0-3.99 1.51-7.48 1.51-3.52 4.09-6.13 2.61-2.61 6.1-4.12 3.52-1.51 7.51-1.51 3.99 0 7.48 1.51 3.52 1.51 6.13 4.12 2.61 2.61 4.12 6.13 1.51 3.49 1.51 7.48l0 28.83zM345.47 392.27q-3.35 2.88-7.51 4.43-4.16 1.54-8.62 1.54-3.42 0-6.6-0.91-3.15-0.87-5.93-2.48-2.75-1.64-5.03-3.92-2.28-2.28-3.92-5.03-1.61-2.78-2.51-5.93-0.87-3.18-0.87-6.6 0-3.42 0.87-6.6 0.91-3.18 2.51-5.93 1.64-2.78 3.92-5.06 2.28-2.28 5.03-3.89 2.78-1.64 5.93-2.51 3.18-0.91 6.6-0.91 4.46 0 8.62 1.54 4.16 1.51 7.51 4.43l-5.1 8.38q-2.11-2.28-4.99-3.49-2.88-1.24-6.03-1.24-3.18 0-5.97 1.21-2.78 1.21-4.86 3.29-2.08 2.04-3.29 4.86-1.21 2.78-1.21 5.93 0 3.15 1.21 5.93 1.21 2.75 3.29 4.83 2.08 2.08 4.86 3.29 2.78 1.21 5.97 1.21 3.15 0 6.03-1.21 2.88-1.24 4.99-3.52l5.1 8.38zM373.01 397.2l-9.59 0 0-38.45-14.45 0 0-9.62 38.45 0 0 9.62-14.42 0 0 38.45zM437.51 373.36q0 3.42-0.91 6.6-0.87 3.15-2.48 5.93-1.61 2.75-3.89 5.03-2.28 2.28-5.03 3.92-2.75 1.61-5.93 2.48-3.18 0.91-6.6 0.91-3.42 0-6.6-0.91-3.15-0.87-5.93-2.48-2.75-1.64-5.03-3.92-2.28-2.28-3.92-5.03-1.61-2.78-2.51-5.93-0.87-3.18-0.87-6.6 0-3.42 0.87-6.6 0.91-3.18 2.51-5.93 1.64-2.75 3.92-5.03 2.28-2.28 5.03-3.89 2.78-1.61 5.93-2.48 3.18-0.91 6.6-0.91 3.42 0 6.6 0.91 3.18 0.87 5.93 2.48 2.75 1.61 5.03 3.89 2.28 2.28 3.89 5.03 1.61 2.75 2.48 5.93 0.91 3.18 0.91 6.6zm-9.55 0q0-3.15-1.21-5.93-1.21-2.82-3.29-4.86-2.04-2.08-4.86-3.29-2.78-1.21-5.93-1.21-3.18 0-5.97 1.21-2.78 1.21-4.86 3.29-2.08 2.04-3.29 4.86-1.21 2.78-1.21 5.93 0 3.15 1.21 5.93 1.21 2.75 3.29 4.83 2.08 2.08 4.86 3.29 2.78 1.21 5.97 1.21 3.15 0 5.93-1.21 2.82-1.21 4.86-3.29 2.08-2.08 3.29-4.83 1.21-2.78 1.21-5.93zM453.6 358.75l0 19.24 9.62 0q1.98 0 3.72-0.74 1.74-0.77 3.05-2.08 1.31-1.31 2.04-3.05 0.77-1.78 0.77-3.75 0-1.98-0.77-3.72-0.74-1.78-2.04-3.08-1.31-1.31-3.05-2.04-1.74-0.77-3.72-0.77l-9.62 0zm0 38.45-9.62 0 0-48.07 19.24 0q2.65 0 5.1 0.7 2.45 0.67 4.56 1.94 2.15 1.24 3.89 3.02 1.78 1.74 3.02 3.89 1.27 2.15 1.94 4.59 0.7 2.45 0.7 5.1 0 2.48-0.64 4.83-0.6 2.35-1.78 4.46-1.14 2.11-2.82 3.89-1.68 1.78-3.75 3.08l5.33 12.57-10.22 0-4.19-9.69-10.76 0.07 0 9.62z" fill="#274c72"/>
  </g>
</svg>
